<svg width="23" height="28" viewBox="0 0 23 28" fill="none" xmlns="http://www.w3.org/2000/svg">
<path d="M20.4432 0.831055C21.0938 0.831055 21.7177 1.1412 22.1778 1.69325C22.6378 2.24531 22.8963 2.99405 22.8963 3.77478L22.8963 24.3808C22.8963 25.1616 22.6378 25.9103 22.1778 26.4624C21.7177 27.0144 21.0938 27.3246 20.4432 27.3246L3.27146 27.3246C2.62086 27.3246 1.9969 27.0144 1.53686 26.4624C1.07681 25.9103 0.818359 25.1616 0.818359 24.3808L0.818359 3.77478C0.818359 2.99405 1.07681 2.24531 1.53686 1.69325C1.9969 1.1412 2.62086 0.831055 3.27146 0.831055L20.4432 0.831055ZM19.8299 23.6449V15.844C19.8299 14.5715 19.4086 13.351 18.6588 12.4512C17.9089 11.5513 16.8918 11.0458 15.8313 11.0458C14.7888 11.0458 13.5745 11.8111 12.9857 12.9592V11.3254H9.56367L9.56367 23.6449L12.9857 23.6449L12.9857 16.3886C12.9857 15.2553 13.7462 14.328 14.6907 14.328C15.1461 14.328 15.5828 14.5451 15.9049 14.9316C16.2269 15.318 16.4078 15.8421 16.4078 16.3886L16.4078 23.6449H19.8299ZM5.57738 9.01461C6.12389 9.01461 6.64801 8.75409 7.03445 8.29036C7.42089 7.82663 7.63799 7.19769 7.63799 6.54188C7.63799 5.17305 6.71807 4.05443 5.57738 4.05443C5.02762 4.05443 4.50038 4.3165 4.11164 4.78299C3.7229 5.24947 3.50451 5.88217 3.50451 6.54188C3.50451 7.91071 4.43669 9.01461 5.57738 9.01461ZM7.28229 23.6449L7.28229 11.3254L3.88474 11.3254L3.88474 23.6449H7.28229Z" fill="#A3A3A3"/>
</svg>
