<svg width="15" height="15" viewBox="0 0 15 15" fill="none" xmlns="http://www.w3.org/2000/svg">
<path d="M10.8333 6.66667V4.16667H8.33333V2.5H10.8333V0L12.5 0V2.5H15V4.16667H12.5V6.66667H10.8333ZM14.125 15C12.3333 15 10.5869 14.6006 8.88583 13.8017C7.18417 13.0033 5.67722 11.9478 4.365 10.635C3.05222 9.32278 1.99667 7.81583 1.19833 6.11417C0.399445 4.41305 0 2.66667 0 0.875C0 0.625 0.0833333 0.416667 0.25 0.25C0.416667 0.0833333 0.625 0 0.875 0L4.25 0C4.44444 0 4.61806 0.0624999 4.77083 0.1875C4.92361 0.3125 5.01389 0.472222 5.04167 0.666667L5.58333 3.58333C5.61111 3.77778 5.60778 3.95472 5.57333 4.11417C5.53833 4.27417 5.45833 4.41667 5.33333 4.54167L3.3125 6.58333C3.89583 7.58333 4.62861 8.52083 5.51083 9.39583C6.3925 10.2708 7.36111 11.0278 8.41667 11.6667L10.375 9.70833C10.5 9.58333 10.6633 9.48944 10.865 9.42667C11.0661 9.36444 11.2639 9.34722 11.4583 9.375L14.3333 9.95833C14.5278 10 14.6875 10.0936 14.8125 10.2392C14.9375 10.3853 15 10.5556 15 10.75V14.125C15 14.375 14.9167 14.5833 14.75 14.75C14.5833 14.9167 14.375 15 14.125 15ZM2.52083 5L3.89583 3.625L3.54167 1.66667L1.6875 1.66667C1.75694 2.23611 1.85417 2.79861 1.97917 3.35417C2.10417 3.90972 2.28472 4.45833 2.52083 5ZM9.97917 12.4583C10.5208 12.6944 11.0731 12.8819 11.6358 13.0208C12.1981 13.1597 12.7639 13.25 13.3333 13.2917V11.4583L11.375 11.0625L9.97917 12.4583Z" fill="black"/>
</svg>
