<svg width="21" height="20" viewBox="0 0 21 20" fill="none" xmlns="http://www.w3.org/2000/svg">
<path d="M8.5 8C7.4 8 6.45833 7.60833 5.675 6.825C4.89167 6.04167 4.5 5.1 4.5 4C4.5 2.9 4.89167 1.95833 5.675 1.175C6.45833 0.391667 7.4 0 8.5 0C9.6 0 10.5417 0.391667 11.325 1.175C12.1083 1.95833 12.5 2.9 12.5 4C12.5 5.1 12.1083 6.04167 11.325 6.825C10.5417 7.60833 9.6 8 8.5 8ZM18.9 18.8L16.4 16.3C16.05 16.5 15.675 16.6667 15.275 16.8C14.875 16.9333 14.45 17 14 17C12.75 17 11.6873 16.5627 10.812 15.688C9.93733 14.8127 9.5 13.75 9.5 12.5C9.5 11.25 9.93733 10.1873 10.812 9.312C11.6873 8.43733 12.75 8 14 8C15.25 8 16.3127 8.43733 17.188 9.312C18.0627 10.1873 18.5 11.25 18.5 12.5C18.5 12.95 18.4333 13.375 18.3 13.775C18.1667 14.175 18 14.55 17.8 14.9L20.3 17.4C20.4833 17.5833 20.575 17.8167 20.575 18.1C20.575 18.3833 20.4833 18.6167 20.3 18.8C20.1167 18.9833 19.8833 19.075 19.6 19.075C19.3167 19.075 19.0833 18.9833 18.9 18.8ZM14 15C14.7 15 15.2917 14.7583 15.775 14.275C16.2583 13.7917 16.5 13.2 16.5 12.5C16.5 11.8 16.2583 11.2083 15.775 10.725C15.2917 10.2417 14.7 10 14 10C13.3 10 12.7083 10.2417 12.225 10.725C11.7417 11.2083 11.5 11.8 11.5 12.5C11.5 13.2 11.7417 13.7917 12.225 14.275C12.7083 14.7583 13.3 15 14 15ZM2.5 16C1.95 16 1.479 15.8043 1.087 15.413C0.695667 15.021 0.5 14.55 0.5 14V13.225C0.5 12.6583 0.641667 12.1333 0.925 11.65C1.20833 11.1667 1.6 10.8 2.1 10.55C2.95 10.1167 3.90833 9.75 4.975 9.45C6.04167 9.15 7.225 9 8.525 9C8.19167 9.51667 7.93733 10.0707 7.762 10.662C7.58733 11.254 7.5 11.8667 7.5 12.5C7.5 13.1167 7.58733 13.7207 7.762 14.312C7.93733 14.904 8.19167 15.4667 8.525 16H2.5Z" fill="#1A5CB0"/>
</svg>
