<svg width="59" height="59" viewBox="0 0 59 59" fill="none" xmlns="http://www.w3.org/2000/svg">
<path d="M39.1366 38.918H20V19.4824C20 8.76611 28.5853 0.0466919 39.1366 0.0466919C49.688 0.0466919 58.2733 8.76611 58.2733 19.4824C58.2733 30.1986 49.688 38.918 39.1366 38.918ZM26.9141 31.9025H39.1366C45.8804 31.9025 51.3658 26.3314 51.3658 19.4824C51.3658 12.6333 45.8804 7.06882 39.1366 7.06882C32.3929 7.06882 26.9075 12.6399 26.9075 19.489V31.9025H26.9141Z" fill="white"/>
<path d="M13.3206 58.7499C6.08537 58.7499 0.200195 52.7728 0.200195 45.4245C0.200195 38.0762 6.08537 32.1058 13.3206 32.1058H26.441V45.4312C26.441 52.7728 20.5558 58.7499 13.3206 58.7499ZM13.3206 39.1213C9.89304 39.1213 7.10774 41.9501 7.10774 45.4312C7.10774 48.9123 9.89304 51.7411 13.3206 51.7411C16.7481 51.7411 19.5335 48.9123 19.5335 45.4312V39.1213H13.3206Z" fill="white"/>
<path d="M26.4407 39.1213H19.5332V45.4313H26.4407V39.1213Z" fill="white"/>
<path d="M26.9075 25.4373H20V31.7473H26.9075V25.4373Z" fill="white"/>
</svg>
