<svg width="16" height="12" viewBox="0 0 16 12" fill="none" xmlns="http://www.w3.org/2000/svg">
<path d="M1.76021 8L5.09321 11.136C5.14101 11.181 5.17947 11.2351 5.2064 11.295C5.23332 11.3549 5.24819 11.4195 5.25014 11.4852C5.25209 11.5508 5.24109 11.6162 5.21776 11.6776C5.19444 11.739 5.15925 11.7952 5.11421 11.843C5.06917 11.8908 5.01515 11.9293 4.95524 11.9562C4.89534 11.9831 4.83071 11.998 4.76506 11.9999C4.69941 12.0019 4.63402 11.9909 4.57262 11.9676C4.51122 11.9442 4.45501 11.909 4.40721 11.864L0.157212 7.864C0.107572 7.81725 0.0680183 7.76085 0.0409825 7.69825C0.0139467 7.63565 0 7.56819 0 7.5C0 7.43181 0.0139467 7.36435 0.0409825 7.30175C0.0680183 7.23915 0.107572 7.18275 0.157212 7.136L4.40721 3.136C4.45501 3.09096 4.51122 3.05577 4.57262 3.03245C4.63402 3.00913 4.69941 2.99813 4.76506 3.00008C4.83071 3.00203 4.89534 3.01689 4.95524 3.04381C5.01515 3.07074 5.06917 3.1092 5.11421 3.157C5.15925 3.2048 5.19444 3.26101 5.21776 3.32241C5.24109 3.38381 5.25209 3.4492 5.25014 3.51485C5.24819 3.5805 5.23332 3.64512 5.2064 3.70503C5.17947 3.76494 5.14101 3.81896 5.09321 3.864L1.76021 7H13.0002C13.5306 7 14.0394 6.78929 14.4144 6.41421C14.7895 6.03914 15.0002 5.53043 15.0002 5V0.5C15.0002 0.367392 15.0529 0.240215 15.1467 0.146447C15.2404 0.0526785 15.3676 0 15.5002 0C15.6328 0 15.76 0.0526785 15.8538 0.146447C15.9475 0.240215 16.0002 0.367392 16.0002 0.5V5C16.0002 5.79565 15.6841 6.55871 15.1215 7.12132C14.5589 7.68393 13.7959 8 13.0002 8H1.76021Z" fill="#1A5CB0"/>
</svg>
