<svg width="22" height="26" viewBox="0 0 22 26" fill="none" xmlns="http://www.w3.org/2000/svg">
<path d="M8.07898 22.0349C8.70387 21.9027 12.5116 21.9027 13.1365 22.0349C13.6707 22.1583 14.2484 22.4466 14.2484 23.076C14.2173 23.6753 13.8657 24.2066 13.38 24.544C12.7501 25.035 12.0109 25.3459 11.2382 25.458C10.8109 25.5134 10.3909 25.5146 9.97849 25.458C9.20452 25.3459 8.46534 25.035 7.83672 24.5427C7.34973 24.2066 6.99815 23.6753 6.96709 23.076C6.96709 22.4466 7.54478 22.1583 8.07898 22.0349ZM10.6815 0.5C13.2817 0.5 15.9378 1.73377 17.5156 3.78083C18.5392 5.09895 19.0088 6.41582 19.0088 8.46288V8.99541C19.0088 10.5653 19.4238 11.4907 20.3369 12.557C21.0289 13.3426 21.25 14.351 21.25 15.445C21.25 16.5378 20.891 17.5752 20.1717 18.4174C19.23 19.4271 17.9019 20.0717 16.5466 20.1837C14.5824 20.3512 12.6171 20.4922 10.6256 20.4922C8.63293 20.4922 6.66881 20.4078 4.70469 20.1837C3.34807 20.0717 2.02002 19.4271 1.07958 18.4174C0.360275 17.5752 0 16.5378 0 15.445C0 14.351 0.222377 13.3426 0.91311 12.557C1.85479 11.4907 2.2424 10.5653 2.2424 8.99541V8.46288C2.2424 6.36042 2.76666 4.98565 3.84624 3.63983C5.45133 1.67712 8.02419 0.5 10.5697 0.5H10.6815Z" fill="white"/>
</svg>
