<svg width="55" height="55" viewBox="0 0 55 55" fill="none" xmlns="http://www.w3.org/2000/svg">
<path d="M36.0577 35.0685H19.9111V18.9219C19.9111 10.0192 27.155 2.77539 36.0577 2.77539C44.9604 2.77539 52.2042 10.0192 52.2042 18.9219C52.2042 27.8247 44.9604 35.0685 36.0577 35.0685ZM25.7449 29.2403H36.0577C41.7477 29.2403 46.376 24.6119 46.376 18.9219C46.376 13.2319 41.7477 8.60916 36.0577 8.60916C30.3677 8.60916 25.7394 13.2375 25.7394 18.9275V29.2403H25.7449Z" fill="white"/>
<path d="M14.6748 51.3754C8.57011 51.3754 3.60449 46.4098 3.60449 40.305C3.60449 34.2003 8.57011 29.2402 14.6748 29.2402H25.7452V40.3106C25.7452 46.4098 20.7796 51.3754 14.6748 51.3754ZM14.6748 35.0685C11.7828 35.0685 9.43273 37.4186 9.43273 40.3106C9.43273 43.2026 11.7828 45.5527 14.6748 45.5527C17.5668 45.5527 19.9169 43.2026 19.9169 40.3106V35.0685H14.6748Z" fill="white"/>
<path d="M25.7452 35.0684H19.917V40.3105H25.7452V35.0684Z" fill="white"/>
<path d="M25.7452 23.998H19.917V29.2401H25.7452V23.998Z" fill="white"/>
</svg>
